HIERARCHY
ROOT mixamorig:Hips
{
	OFFSET -0.000008 104.274872 1.554316
	CHANNELS 6 Xposition Yposition Zposition Xrotation Yrotation Zrotation
	JOINT mixamorig:Spine
	{
		OFFSET -0.000005 10.181595 0.131519
		CHANNELS 6 Xposition Yposition Zposition Xrotation Yrotation Zrotation
		JOINT mixamorig:Spine1
		{
			OFFSET -0.000000 9.893959 -1.470707
			CHANNELS 6 Xposition Yposition Zposition Xrotation Yrotation Zrotation
			JOINT mixamorig:Spine2
			{
				OFFSET -0.000000 9.220757 -1.370641
				CHANNELS 6 Xposition Yposition Zposition Xrotation Yrotation Zrotation
				JOINT mixamorig:Neck
				{
					OFFSET 0.000001 16.740417 -2.049036
					CHANNELS 6 Xposition Yposition Zposition Xrotation Yrotation Zrotation
					JOINT mixamorig:Head
					{
						OFFSET 0.000000 9.617874 1.685006
						CHANNELS 6 Xposition Yposition Zposition Xrotation Yrotation Zrotation
						JOINT mixamorig:HeadTop_End
						{
							OFFSET 0.000002 22.037354 7.501101
							CHANNELS 6 Xposition Yposition Zposition Xrotation Yrotation Zrotation
							End Site
							{
								OFFSET 0.000168 2310.654297 -282.823242
							}
						}
					}
				}
				JOINT mixamorig:RightShoulder
				{
					OFFSET -4.569970 11.014908 -2.160885
					CHANNELS 6 Xposition Yposition Zposition Xrotation Yrotation Zrotation
					JOINT mixamorig:RightArm
					{
						OFFSET -10.592851 -0.524811 -2.232101
						CHANNELS 6 Xposition Yposition Zposition Xrotation Yrotation Zrotation
						JOINT mixamorig:RightForeArm
						{
							OFFSET -27.841511 0.000031 -0.000004
							CHANNELS 6 Xposition Yposition Zposition Xrotation Yrotation Zrotation
							JOINT mixamorig:RightHand
							{
								OFFSET -28.328831 -0.000015 0.000015
								CHANNELS 6 Xposition Yposition Zposition Xrotation Yrotation Zrotation
								JOINT mixamorig:RightHandThumb1
								{
									OFFSET -2.464806 -1.573990 2.681852
									CHANNELS 6 Xposition Yposition Zposition Xrotation Yrotation Zrotation
									JOINT mixamorig:RightHandThumb2
									{
										OFFSET -3.215179 -1.872803 1.924282
										CHANNELS 6 Xposition Yposition Zposition Xrotation Yrotation Zrotation
										JOINT mixamorig:RightHandThumb3
										{
											OFFSET -2.654831 -1.527969 1.512609
											CHANNELS 6 Xposition Yposition Zposition Xrotation Yrotation Zrotation
											JOINT mixamorig:RightHandThumb4
											{
												OFFSET -2.018814 -1.152008 1.108052
												CHANNELS 6 Xposition Yposition Zposition Xrotation Yrotation Zrotation
												End Site
												{
													OFFSET -188.809540 -114.533607 132.431396
												}
											}
										}
									}
								}
								JOINT mixamorig:RightHandIndex1
								{
									OFFSET -9.108284 -0.517868 2.259835
									CHANNELS 6 Xposition Yposition Zposition Xrotation Yrotation Zrotation
									JOINT mixamorig:RightHandIndex2
									{
										OFFSET -3.699989 0.000000 0.001215
										CHANNELS 6 Xposition Yposition Zposition Xrotation Yrotation Zrotation
										JOINT mixamorig:RightHandIndex3
										{
											OFFSET -2.850006 0.000031 -0.000522
											CHANNELS 6 Xposition Yposition Zposition Xrotation Yrotation Zrotation
											JOINT mixamorig:RightHandIndex4
											{
												OFFSET -2.772186 -0.000015 -0.000020
												CHANNELS 6 Xposition Yposition Zposition Xrotation Yrotation Zrotation
												End Site
												{
													OFFSET -277.218445 0.000000 -0.050231
												}
											}
										}
									}
								}
								JOINT mixamorig:RightHandMiddle1
								{
									OFFSET -9.532516 -0.000031 -0.000023
									CHANNELS 6 Xposition Yposition Zposition Xrotation Yrotation Zrotation
									JOINT mixamorig:RightHandMiddle2
									{
										OFFSET -3.700005 -0.000015 0.003713
										CHANNELS 6 Xposition Yposition Zposition Xrotation Yrotation Zrotation
										JOINT mixamorig:RightHandMiddle3
										{
											OFFSET -2.949974 0.000015 -0.002054
											CHANNELS 6 Xposition Yposition Zposition Xrotation Yrotation Zrotation
											JOINT mixamorig:RightHandMiddle4
											{
												OFFSET -2.946640 0.000000 -0.000156
												CHANNELS 6 Xposition Yposition Zposition Xrotation Yrotation Zrotation
												End Site
												{
													OFFSET -294.664337 0.000000 -0.113670
												}
											}
										}
									}
								}
								JOINT mixamorig:RightHandRing1
								{
									OFFSET -9.103600 -0.043076 -1.865134
									CHANNELS 6 Xposition Yposition Zposition Xrotation Yrotation Zrotation
									JOINT mixamorig:RightHandRing2
									{
										OFFSET -3.379288 0.000000 -0.001055
										CHANNELS 6 Xposition Yposition Zposition Xrotation Yrotation Zrotation
										JOINT mixamorig:RightHandRing3
										{
											OFFSET -2.889687 -0.000015 0.000379
											CHANNELS 6 Xposition Yposition Zposition Xrotation Yrotation Zrotation
											JOINT mixamorig:RightHandRing4
											{
												OFFSET -2.638809 -0.000015 0.000941
												CHANNELS 6 Xposition Yposition Zposition Xrotation Yrotation Zrotation
												End Site
												{
													OFFSET -263.880371 0.000000 0.516020
												}
											}
										}
									}
								}
								JOINT mixamorig:RightHandPinky1
								{
									OFFSET -8.076683 -0.486710 -3.806280
									CHANNELS 6 Xposition Yposition Zposition Xrotation Yrotation Zrotation
									JOINT mixamorig:RightHandPinky2
									{
										OFFSET -3.600014 -0.000015 -0.003747
										CHANNELS 6 Xposition Yposition Zposition Xrotation Yrotation Zrotation
										JOINT mixamorig:RightHandPinky3
										{
											OFFSET -2.099983 0.000000 -0.005739
											CHANNELS 6 Xposition Yposition Zposition Xrotation Yrotation Zrotation
											JOINT mixamorig:RightHandPinky4
											{
												OFFSET -2.115768 -0.000031 -0.003680
												CHANNELS 6 Xposition Yposition Zposition Xrotation Yrotation Zrotation
												End Site
												{
													OFFSET -211.577087 0.000000 -0.350686
												}
											}
										}
									}
								}
							}
						}
					}
				}
				JOINT mixamorig:LeftShoulder
				{
					OFFSET 4.570447 11.014725 -2.160855
					CHANNELS 6 Xposition Yposition Zposition Xrotation Yrotation Zrotation
					JOINT mixamorig:LeftArm
					{
						OFFSET 10.592371 -0.524597 -2.232119
						CHANNELS 6 Xposition Yposition Zposition Xrotation Yrotation Zrotation
						JOINT mixamorig:LeftForeArm
						{
							OFFSET 27.841532 -0.000031 0.000026
							CHANNELS 6 Xposition Yposition Zposition Xrotation Yrotation Zrotation
							JOINT mixamorig:LeftHand
							{
								OFFSET 28.328846 -0.000061 0.000022
								CHANNELS 6 Xposition Yposition Zposition Xrotation Yrotation Zrotation
								JOINT mixamorig:LeftHandThumb1
								{
									OFFSET 2.466141 -1.576172 2.681732
									CHANNELS 6 Xposition Yposition Zposition Xrotation Yrotation Zrotation
									JOINT mixamorig:LeftHandThumb2
									{
										OFFSET 3.217812 -1.872070 1.916482
										CHANNELS 6 Xposition Yposition Zposition Xrotation Yrotation Zrotation
										JOINT mixamorig:LeftHandThumb3
										{
											OFFSET 2.656029 -1.528778 1.514513
											CHANNELS 6 Xposition Yposition Zposition Xrotation Yrotation Zrotation
											JOINT mixamorig:LeftHandThumb4
											{
												OFFSET 2.020889 -1.154053 1.115139
												CHANNELS 6 Xposition Yposition Zposition Xrotation Yrotation Zrotation
												End Site
												{
													OFFSET 190.885437 -115.081749 130.048782
												}
											}
										}
									}
								}
								JOINT mixamorig:LeftHandIndex1
								{
									OFFSET 9.109314 -0.518021 2.259871
									CHANNELS 6 Xposition Yposition Zposition Xrotation Yrotation Zrotation
									JOINT mixamorig:LeftHandIndex2
									{
										OFFSET 3.699989 0.000000 -0.000322
										CHANNELS 6 Xposition Yposition Zposition Xrotation Yrotation Zrotation
										JOINT mixamorig:LeftHandIndex3
										{
											OFFSET 2.850006 0.000000 0.000352
											CHANNELS 6 Xposition Yposition Zposition Xrotation Yrotation Zrotation
											JOINT mixamorig:LeftHandIndex4
											{
												OFFSET 2.774864 -0.000031 -0.000027
												CHANNELS 6 Xposition Yposition Zposition Xrotation Yrotation Zrotation
												End Site
												{
													OFFSET 277.486267 0.000000 -0.009857
												}
											}
										}
									}
								}
								JOINT mixamorig:LeftHandMiddle1
								{
									OFFSET 9.533394 0.000061 0.000044
									CHANNELS 6 Xposition Yposition Zposition Xrotation Yrotation Zrotation
									JOINT mixamorig:LeftHandMiddle2
									{
										OFFSET 3.699989 -0.000015 -0.000231
										CHANNELS 6 Xposition Yposition Zposition Xrotation Yrotation Zrotation
										JOINT mixamorig:LeftHandMiddle3
										{
											OFFSET 2.949997 -0.000015 -0.000059
											CHANNELS 6 Xposition Yposition Zposition Xrotation Yrotation Zrotation
											JOINT mixamorig:LeftHandMiddle4
											{
												OFFSET 2.952896 0.000031 0.000063
												CHANNELS 6 Xposition Yposition Zposition Xrotation Yrotation Zrotation
												End Site
												{
													OFFSET 295.289337 0.000000 0.022810
												}
											}
										}
									}
								}
								JOINT mixamorig:LeftHandRing1
								{
									OFFSET 9.104523 -0.042999 -1.865074
									CHANNELS 6 Xposition Yposition Zposition Xrotation Yrotation Zrotation
									JOINT mixamorig:LeftHandRing2
									{
										OFFSET 3.150009 -0.000031 0.000043
										CHANNELS 6 Xposition Yposition Zposition Xrotation Yrotation Zrotation
										JOINT mixamorig:LeftHandRing3
										{
											OFFSET 2.949982 -0.000015 0.000040
											CHANNELS 6 Xposition Yposition Zposition Xrotation Yrotation Zrotation
											JOINT mixamorig:LeftHandRing4
											{
												OFFSET 2.644348 0.000000 0.000057
												CHANNELS 6 Xposition Yposition Zposition Xrotation Yrotation Zrotation
												End Site
												{
													OFFSET 264.434631 0.000000 0.012105
												}
											}
										}
									}
								}
								JOINT mixamorig:LeftHandPinky1
								{
									OFFSET 8.077789 -0.486847 -3.806259
									CHANNELS 6 Xposition Yposition Zposition Xrotation Yrotation Zrotation
									JOINT mixamorig:LeftHandPinky2
									{
										OFFSET 3.599953 0.000031 0.014727
										CHANNELS 6 Xposition Yposition Zposition Xrotation Yrotation Zrotation
										JOINT mixamorig:LeftHandPinky3
										{
											OFFSET 2.100021 0.000015 0.007705
											CHANNELS 6 Xposition Yposition Zposition Xrotation Yrotation Zrotation
											JOINT mixamorig:LeftHandPinky4
											{
												OFFSET 2.125504 0.000031 0.007517
												CHANNELS 6 Xposition Yposition Zposition Xrotation Yrotation Zrotation
												End Site
												{
													OFFSET 212.550781 0.000000 0.625752
												}
											}
										}
									}
								}
							}
						}
					}
				}
			}
		}
	}
	JOINT mixamorig:RightUpLeg
	{
		OFFSET -8.207787 -6.751648 -1.599560
		CHANNELS 6 Xposition Yposition Zposition Xrotation Yrotation Zrotation
		JOINT mixamorig:RightLeg
		{
			OFFSET -0.000002 -44.370117 0.345942
			CHANNELS 6 Xposition Yposition Zposition Xrotation Yrotation Zrotation
			JOINT mixamorig:RightFoot
			{
				OFFSET 0.000003 -44.423679 -3.043532
				CHANNELS 6 Xposition Yposition Zposition Xrotation Yrotation Zrotation
				JOINT mixamorig:RightToeBase
				{
					OFFSET -0.000002 -8.728671 10.710558
					CHANNELS 6 Xposition Yposition Zposition Xrotation Yrotation Zrotation
					JOINT mixamorig:RightToe_End
					{
						OFFSET -0.000001 -0.000679 9.278119
						CHANNELS 6 Xposition Yposition Zposition Xrotation Yrotation Zrotation
						End Site
						{
							OFFSET 0.000000 -0.067690 927.812134
						}
					}
				}
			}
		}
	}
	JOINT mixamorig:LeftUpLeg
	{
		OFFSET 8.207793 -6.751686 -1.599556
		CHANNELS 6 Xposition Yposition Zposition Xrotation Yrotation Zrotation
		JOINT mixamorig:LeftLeg
		{
			OFFSET -0.000004 -44.370014 0.346954
			CHANNELS 6 Xposition Yposition Zposition Xrotation Yrotation Zrotation
			JOINT mixamorig:LeftFoot
			{
				OFFSET -0.000001 -44.423672 -3.044401
				CHANNELS 6 Xposition Yposition Zposition Xrotation Yrotation Zrotation
				JOINT mixamorig:LeftToeBase
				{
					OFFSET -0.000002 -8.728669 10.710558
					CHANNELS 6 Xposition Yposition Zposition Xrotation Yrotation Zrotation
					JOINT mixamorig:LeftToe_End
					{
						OFFSET -0.000003 -0.000679 9.278133
						CHANNELS 6 Xposition Yposition Zposition Xrotation Yrotation Zrotation
						End Site
						{
							OFFSET 0.000000 -0.068021 927.813477
						}
					}
				}
			}
		}
	}
}
MOTION
Frames: 3
Frame Time: 0.033333
0.000006 104.270477 1.554256 0.000010 0.000003 -0.000113 -0.000005 10.181587 0.131522 0.000001 -0.000003 0.000084 -0.000000 9.893967 -1.470711 0.000001 0.000000 -0.000000 -0.000000 9.220802 -1.370642 0.000000 -0.000000 -0.000000 0.000001 16.740433 -2.049030 0.000000 -0.000000 -0.000000 0.000000 9.617859 1.685014 0.000000 0.000000 0.000000 0.000002 22.037384 7.501101 0.000000 -0.000000 0.000000 -4.569968 11.014880 -2.160881 0.000008 0.000001 -0.000038 -10.592867 -0.524782 -2.231874 74.388963 36.488383 -28.089646 -27.841518 0.000014 0.000548 -52.345508 105.482102 65.733536 -28.328821 0.000020 0.000026 -0.000325 -0.000046 0.000007 -2.464437 -1.573972 2.682369 -24.231481 -149.716381 35.165745 -3.215248 -1.872509 1.924617 150.981769 34.404189 27.269790 -2.654950 -1.527892 1.513076 147.643814 27.033240 -34.760779 -2.018834 -1.151985 1.108065 -0.000001 -0.000001 0.000002 -9.108391 -0.517592 2.260206 114.473165 17.573822 -27.084700 -3.700069 0.000293 0.001562 109.218864 12.531336 -17.538283 -2.850067 0.000371 -0.000187 109.510506 8.716668 -12.311178 -2.772171 -0.000015 -0.000017 -0.000000 -0.000001 -0.000000 -9.532609 0.000244 0.000332 110.534365 18.357481 -26.447242 -3.700071 0.000304 0.004050 110.863184 11.756920 -16.860216 -2.950042 0.000342 -0.001737 111.153775 9.733052 -14.153984 -2.946626 0.000001 -0.000156 -0.000001 -0.000001 0.000000 -9.103704 -0.042791 -1.864780 109.992431 20.257501 -28.556823 -3.379338 0.000299 -0.000701 112.045961 11.940890 -17.668593 -2.889757 0.000328 0.000737 115.789260 7.612684 -12.179474 -2.638811 -0.000015 0.000941 0.000001 0.000001 -0.000002 -8.076780 -0.486416 -3.805960 95.295701 24.276208 -26.377303 -3.600088 0.000239 -0.003430 103.563064 14.877863 -18.346103 -2.100041 0.000291 -0.005385 109.052207 8.839414 -12.058827 -2.115775 -0.000042 -0.003677 -0.000001 -0.000001 -0.000004 4.570446 11.014691 -2.160851 -0.000018 0.000010 -0.000021 10.592399 -0.524481 -2.232353 72.666977 -12.694490 9.354115 27.841837 0.000093 -0.000219 106.739225 -68.641817 85.117893 28.328838 -0.000029 0.000027 0.000021 -0.000090 0.000000 2.466083 -1.576188 2.681907 -22.647876 148.562967 -36.756421 3.217843 -1.871768 1.916378 156.527104 -28.356642 15.759456 2.656091 -1.528629 1.514439 141.259746 -27.843179 38.904126 2.020888 -1.154081 1.115153 0.000000 0.000004 0.000001 9.109375 -0.517798 2.259738 103.648947 -13.122975 16.631015 3.700038 0.000209 -0.000457 102.746706 -10.260840 12.842414 2.850060 0.000234 0.000210 101.573642 -10.531044 12.886553 2.774879 -0.000016 -0.000026 0.000001 0.000000 0.000000 9.533451 0.000244 -0.000070 97.363022 -15.088643 17.124944 3.700083 0.000193 -0.000362 97.543673 -14.351624 16.348632 2.950069 0.000167 -0.000191 95.152342 -17.133104 18.723461 2.952880 -0.000030 0.000062 0.000001 0.000000 0.000000 9.104591 -0.042837 -1.865217 93.804971 -17.187271 18.350958 3.150074 0.000195 -0.000060 98.774733 -18.560197 21.579716 2.950052 0.000182 -0.000050 100.464822 -17.978887 21.528213 2.644325 0.000045 0.000058 -0.000003 0.000001 0.000000 8.077850 -0.486772 -3.806392 67.914634 -23.990476 16.724393 3.600008 0.000132 0.014584 70.825633 -18.370209 13.506818 2.100041 0.000174 0.007560 76.182899 -15.244475 12.372500 2.125486 0.000002 0.007511 0.000001 0.000004 0.000000 -8.207786 -6.751667 -1.599560 -0.077001 -0.000003 0.000080 -0.000002 -44.370110 0.345938 0.153719 -0.000000 -0.000000 0.000000 -44.423679 -3.043532 -0.076700 0.000000 -0.000002 -0.000006 -8.728667 10.710559 -0.000009 -0.000000 -0.000000 -0.000001 -0.000679 9.278123 0.000000 -0.000000 -0.000000 8.207792 -6.751710 -1.599556 -0.074518 -0.000003 0.000081 -0.000002 -44.370014 0.346960 0.148822 0.000002 0.000000 -0.000001 -44.423664 -3.044403 -0.074314 0.000000 -0.000002 -0.000004 -8.728671 10.710558 0.000007 -0.000000 -0.000000 0.000000 -0.000680 9.278137 -0.000000 0.000000 -0.000001 
0.000006 104.270477 1.554256 0.000010 0.000003 -0.000113 -0.000005 10.181587 0.131522 0.000001 -0.000003 0.000084 -0.000000 9.893967 -1.470711 0.000001 0.000000 -0.000000 -0.000000 9.220802 -1.370642 0.000000 -0.000000 -0.000000 0.000001 16.740433 -2.049030 0.000000 -0.000000 -0.000000 0.000000 9.617859 1.685014 0.000000 0.000000 0.000000 0.000002 22.037384 7.501101 0.000000 -0.000000 0.000000 -4.569968 11.014880 -2.160881 0.000008 0.000001 -0.000038 -10.592867 -0.524786 -2.231869 74.275876 36.769886 -28.256962 -27.841516 0.000020 0.000550 -48.882878 104.178321 60.535072 -28.328815 0.000021 0.000031 -0.000323 -0.000047 0.000011 -2.464407 -1.573945 2.682355 -29.224515 -145.884139 24.024145 -3.215232 -1.872483 1.924608 146.833727 34.255246 37.098668 -2.654967 -1.527867 1.513063 149.051694 27.185850 -31.095129 -2.018834 -1.152001 1.108073 -0.000003 -0.000001 0.000002 -9.108380 -0.517570 2.260194 114.088550 15.247573 -23.401942 -3.700064 0.000312 0.001562 111.539373 11.733824 -17.142889 -2.850083 0.000371 -0.000188 110.708487 9.705191 -14.006625 -2.772164 0.000001 -0.000020 0.000000 0.000002 0.000000 -9.532589 0.000262 0.000323 111.633151 14.905587 -22.010742 -3.700073 0.000329 0.004042 111.301218 10.057325 -14.537882 -2.950052 0.000346 -0.001732 111.288220 9.824595 -14.322102 -2.946612 0.000002 -0.000155 0.000001 0.000002 0.000001 -9.103697 -0.042762 -1.864791 110.368508 16.689123 -23.756909 -3.379312 0.000318 -0.000731 113.656650 8.672677 -13.260113 -2.889762 0.000328 0.000740 117.899870 7.400244 -12.338535 -2.638792 -0.000015 0.000937 -0.000003 0.000001 -0.000001 -8.076769 -0.486412 -3.805948 98.155692 23.370542 -26.656408 -3.600049 0.000267 -0.003428 103.910632 11.991972 -14.816530 -2.100023 0.000288 -0.005381 108.838976 7.442628 -10.074410 -2.115770 -0.000041 -0.003676 0.000000 0.000001 -0.000006 4.570446 11.014691 -2.160851 -0.000018 0.000010 -0.000021 10.592423 -0.524474 -2.232370 73.053251 -21.372929 15.913683 27.841831 0.000061 -0.000194 110.425301 -73.818595 94.466905 28.328829 -0.000043 0.000022 0.000021 -0.000089 0.000001 2.466195 -1.576112 2.681858 -2.697920 154.927678 -73.500151 3.217807 -1.871756 1.916372 164.065502 -30.074252 7.815730 2.656094 -1.528616 1.514458 145.699068 -26.594487 42.404113 2.020879 -1.154088 1.115150 0.000000 0.000001 0.000004 9.109404 -0.517795 2.259744 111.578039 -17.148587 24.989973 3.700068 0.000240 -0.000440 110.526196 -10.820187 15.578960 2.850042 0.000270 0.000218 110.769768 -7.958314 11.507643 2.774887 -0.000045 -0.000027 -0.000001 0.000001 -0.000000 9.533491 0.000269 -0.000073 104.940912 -15.752134 20.406529 3.700042 0.000233 -0.000376 104.938938 -9.263951 12.038159 2.950057 0.000241 -0.000180 106.641950 -10.065846 13.490765 2.952888 -0.000030 0.000062 0.000000 0.000001 0.000000 9.104597 -0.042797 -1.865220 101.267267 -16.649949 20.227981 3.150069 0.000224 -0.000069 105.248994 -14.508888 18.924378 2.950041 0.000223 -0.000053 108.284583 -13.672067 18.837867 2.644318 0.000030 0.000055 -0.000001 0.000000 -0.000000 8.077848 -0.486739 -3.806405 73.988215 -23.204330 18.065212 3.600046 0.000138 0.014580 76.261309 -22.390176 18.104327 2.100043 0.000166 0.007574 81.269422 -17.398350 15.401103 2.125483 -0.000015 0.007517 0.000001 -0.000001 -0.000001 -8.207786 -6.751667 -1.599560 -0.077001 -0.000003 0.000080 -0.000002 -44.370110 0.345938 0.153719 -0.000000 -0.000000 0.000000 -44.423679 -3.043532 -0.076700 0.000000 -0.000002 -0.000006 -8.728667 10.710559 -0.000009 -0.000000 -0.000000 -0.000001 -0.000679 9.278123 0.000000 -0.000000 -0.000000 8.207792 -6.751710 -1.599556 -0.074518 -0.000003 0.000081 -0.000002 -44.370014 0.346960 0.148822 0.000002 0.000000 -0.000001 -44.423664 -3.044403 -0.074314 0.000000 -0.000002 -0.000004 -8.728671 10.710558 0.000007 -0.000000 -0.000000 0.000000 -0.000680 9.278137 -0.000000 0.000000 -0.000001 
0.000006 104.270477 1.554256 0.000010 0.000003 -0.000113 -0.000005 10.181587 0.131522 0.000001 -0.000003 0.000084 -0.000000 9.893967 -1.470711 0.000001 0.000000 -0.000000 -0.000000 9.220802 -1.370642 0.000000 -0.000000 -0.000000 0.000001 16.740433 -2.049030 0.000000 -0.000000 -0.000000 0.000000 9.617859 1.685014 0.000000 0.000000 0.000000 0.000002 22.037384 7.501101 0.000000 -0.000000 0.000000 -4.569968 11.014880 -2.160881 0.000008 0.000001 -0.000038 -10.592868 -0.524782 -2.231876 74.058095 36.116381 -27.635319 -27.841516 0.000007 0.000555 -47.701625 104.086305 59.085344 -28.328814 0.000023 0.000033 -0.000322 -0.000043 0.000004 -2.464408 -1.573933 2.682355 -27.196949 -145.021431 27.126510 -3.215224 -1.872486 1.924623 147.548260 34.309075 35.285819 -2.654948 -1.527887 1.513071 148.627307 27.227257 -31.303911 -2.018834 -1.152014 1.108064 -0.000004 -0.000001 0.000002 -9.108370 -0.517562 2.260201 113.616754 14.976694 -22.792971 -3.700051 0.000315 0.001574 111.534687 11.257375 -16.449433 -2.850073 0.000361 -0.000209 110.389360 9.139455 -13.116383 -2.772172 -0.000013 -0.000013 -0.000003 -0.000000 0.000000 -9.532580 0.000259 0.000337 111.539878 14.945972 -22.031455 -3.700083 0.000334 0.004048 111.725332 9.611006 -14.000750 -2.950056 0.000333 -0.001734 111.512790 9.282251 -13.591564 -2.946611 0.000001 -0.000152 0.000001 0.000001 0.000001 -9.103689 -0.042758 -1.864787 110.649324 16.399902 -23.469257 -3.379319 0.000305 -0.000705 114.478738 8.024901 -12.468865 -2.889743 0.000354 0.000730 118.784230 6.808705 -11.561734 -2.638800 -0.000017 0.000946 0.000001 -0.000000 -0.000001 -8.076764 -0.486401 -3.805939 98.035618 22.850920 -26.012198 -3.600062 0.000259 -0.003436 104.405848 11.599842 -14.447472 -2.100008 0.000297 -0.005378 109.874712 7.024554 -9.676549 -2.115773 -0.000042 -0.003680 -0.000000 0.000000 -0.000004 4.570446 11.014691 -2.160851 -0.000018 0.000010 -0.000021 10.592434 -0.524468 -2.232380 72.399636 -24.750633 18.245988 27.841827 0.000023 -0.000174 110.609962 -76.570874 97.494264 28.328842 -0.000028 0.000022 0.000023 -0.000086 -0.000001 2.466252 -1.576024 2.681836 24.251939 167.988598 -116.166082 3.217719 -1.871684 1.916402 162.432294 -37.000900 -23.244507 2.656106 -1.528605 1.514458 153.017602 -25.319296 38.929432 2.020890 -1.154052 1.115146 -0.000001 -0.000001 0.000006 9.109421 -0.517810 2.259784 122.241548 -20.775473 36.746216 3.700073 0.000234 -0.000423 118.856575 -14.006694 23.523619 2.850081 0.000293 0.000225 118.216668 -11.172691 18.567347 2.774888 -0.000047 -0.000025 0.000000 0.000001 -0.000000 9.533505 0.000262 -0.000078 111.032409 -18.770357 27.047115 3.700070 0.000247 -0.000372 113.058448 -10.830584 16.315104 2.950072 0.000254 -0.000177 113.167232 -10.277423 15.527429 2.952874 -0.000031 0.000061 0.000000 0.000001 -0.000000 9.104612 -0.042811 -1.865209 106.342200 -19.104568 25.331684 3.150079 0.000231 -0.000054 112.110759 -15.766686 23.251296 2.950052 0.000224 -0.000060 112.839103 -13.319053 19.951184 2.644310 0.000030 0.000055 0.000001 0.000001 -0.000000 8.077862 -0.486728 -3.806388 84.134072 -25.819343 23.949116 3.600029 0.000152 0.014594 86.719401 -23.329515 22.590151 2.100072 0.000173 0.007547 89.274104 -17.037316 17.326981 2.125505 -0.000013 0.007513 0.000002 0.000003 -0.000001 -8.207786 -6.751667 -1.599560 -0.077001 -0.000003 0.000080 -0.000002 -44.370110 0.345938 0.153719 -0.000000 -0.000000 0.000000 -44.423679 -3.043532 -0.076700 0.000000 -0.000002 -0.000006 -8.728667 10.710559 -0.000009 -0.000000 -0.000000 -0.000001 -0.000679 9.278123 0.000000 -0.000000 -0.000000 8.207792 -6.751710 -1.599556 -0.074518 -0.000003 0.000081 -0.000002 -44.370014 0.346960 0.148822 0.000002 0.000000 -0.000001 -44.423664 -3.044403 -0.074314 0.000000 -0.000002 -0.000004 -8.728671 10.710558 0.000007 -0.000000 -0.000000 0.000000 -0.000680 9.278137 -0.000000 0.000000 -0.000001 
